<?xml version="1.0" encoding="UTF-8"?>
<svg xmlns="http://www.w3.org/2000/svg" xmlns:xlink="http://www.w3.org/1999/xlink" width="1080" height="1920" viewBox="0 0 1080 1920">
<defs>
<g>
<g id="glyph-0-0">
<path d="M 0.875 -2.609375 L 2.03125 -6.3125 L 3.140625 -6.3125 L 1.96875 -2.609375 L 3.140625 1.09375 L 2.03125 1.09375 Z "/>
</g>
<g id="glyph-0-1">
<path d="M 2.9375 -2.609375 L 1.765625 1.09375 L 0.671875 1.09375 L 1.828125 -2.609375 L 0.671875 -6.3125 L 1.765625 -6.3125 Z "/>
</g>
<g id="glyph-0-2">
</g>
<g id="glyph-0-3">
<path d="M 6.09375 -2.53125 L 6.09375 -1.6875 C 5.84375 -1.457031 5.585938 -1.285156 5.328125 -1.171875 C 5.078125 -1.066406 4.816406 -1.015625 4.546875 -1.015625 C 4.285156 -1.015625 3.953125 -1.09375 3.546875 -1.25 C 3.503906 -1.257812 3.46875 -1.269531 3.4375 -1.28125 C 3.414062 -1.289062 3.390625 -1.300781 3.359375 -1.3125 C 2.890625 -1.488281 2.523438 -1.578125 2.265625 -1.578125 C 2.054688 -1.578125 1.835938 -1.53125 1.609375 -1.4375 C 1.378906 -1.34375 1.132812 -1.195312 0.875 -1 L 0.875 -1.828125 C 1.132812 -2.066406 1.390625 -2.238281 1.640625 -2.34375 C 1.898438 -2.457031 2.164062 -2.515625 2.4375 -2.515625 C 2.6875 -2.515625 3.019531 -2.4375 3.4375 -2.28125 C 3.476562 -2.257812 3.507812 -2.242188 3.53125 -2.234375 L 3.59375 -2.21875 C 4.0625 -2.03125 4.4375 -1.9375 4.71875 -1.9375 C 4.925781 -1.9375 5.140625 -1.984375 5.359375 -2.078125 C 5.585938 -2.179688 5.832031 -2.332031 6.09375 -2.53125 Z M 6.09375 -4.234375 L 6.09375 -3.390625 C 5.84375 -3.160156 5.585938 -2.988281 5.328125 -2.875 C 5.078125 -2.757812 4.816406 -2.703125 4.546875 -2.703125 C 4.285156 -2.703125 3.953125 -2.78125 3.546875 -2.9375 C 3.503906 -2.957031 3.46875 -2.972656 3.4375 -2.984375 C 3.414062 -2.992188 3.390625 -3.003906 3.359375 -3.015625 C 2.890625 -3.191406 2.523438 -3.28125 2.265625 -3.28125 C 2.054688 -3.28125 1.835938 -3.226562 1.609375 -3.125 C 1.378906 -3.03125 1.132812 -2.882812 0.875 -2.6875 L 0.875 -3.53125 C 1.132812 -3.757812 1.390625 -3.929688 1.640625 -4.046875 C 1.898438 -4.160156 2.164062 -4.21875 2.4375 -4.21875 C 2.6875 -4.21875 3.019531 -4.140625 3.4375 -3.984375 C 3.476562 -3.960938 3.507812 -3.945312 3.53125 -3.9375 L 3.59375 -3.921875 C 4.0625 -3.734375 4.4375 -3.640625 4.71875 -3.640625 C 4.925781 -3.640625 5.140625 -3.6875 5.359375 -3.78125 C 5.585938 -3.882812 5.832031 -4.035156 6.09375 -4.234375 Z "/>
</g>
<g id="glyph-1-0">
<path d="M 0.03125 0 L 0.03125 -0.4375 L 0.140625 -0.4375 C 0.285156 -0.4375 0.410156 -0.472656 0.515625 -0.546875 C 0.617188 -0.628906 0.710938 -0.796875 0.796875 -1.046875 L 2.609375 -5.953125 L 3.75 -5.953125 L 5.484375 -1.046875 C 5.566406 -0.804688 5.660156 -0.644531 5.765625 -0.5625 C 5.867188 -0.476562 5.988281 -0.4375 6.125 -0.4375 L 6.265625 -0.4375 L 6.265625 0 L 3.515625 0 L 3.515625 -0.4375 L 3.84375 -0.4375 C 3.925781 -0.4375 4.003906 -0.460938 4.078125 -0.515625 C 4.160156 -0.566406 4.203125 -0.648438 4.203125 -0.765625 C 4.203125 -0.828125 4.191406 -0.890625 4.171875 -0.953125 C 4.160156 -1.023438 4.144531 -1.082031 4.125 -1.125 L 3.84375 -1.953125 L 1.8125 -1.953125 L 1.578125 -1.234375 C 1.554688 -1.171875 1.53125 -1.09375 1.5 -1 C 1.476562 -0.90625 1.46875 -0.828125 1.46875 -0.765625 C 1.46875 -0.660156 1.503906 -0.578125 1.578125 -0.515625 C 1.660156 -0.460938 1.75 -0.4375 1.84375 -0.4375 L 2.203125 -0.4375 L 2.203125 0 Z M 1.984375 -2.46875 L 3.671875 -2.46875 L 3.234375 -3.828125 C 3.171875 -4.015625 3.101562 -4.222656 3.03125 -4.453125 C 2.96875 -4.691406 2.914062 -4.910156 2.875 -5.109375 C 2.820312 -4.929688 2.757812 -4.726562 2.6875 -4.5 C 2.613281 -4.28125 2.546875 -4.070312 2.484375 -3.875 Z "/>
</g>
<g id="glyph-1-1">
<path d="M 0.53125 0.828125 L 0.53125 0.453125 L 0.953125 0.453125 C 1.054688 0.453125 1.144531 0.429688 1.21875 0.390625 C 1.289062 0.359375 1.328125 0.273438 1.328125 0.140625 L 1.328125 -2.21875 C 1.191406 -2.0625 1.070312 -1.9375 0.96875 -1.84375 C 0.875 -1.75 0.773438 -1.703125 0.671875 -1.703125 C 0.597656 -1.703125 0.53125 -1.742188 0.46875 -1.828125 C 0.414062 -1.910156 0.390625 -2.003906 0.390625 -2.109375 C 0.492188 -2.140625 0.601562 -2.179688 0.71875 -2.234375 C 0.84375 -2.285156 0.988281 -2.375 1.15625 -2.5 L 1.53125 -2.78125 L 2.15625 -2.78125 L 2.15625 0.140625 C 2.15625 0.273438 2.191406 0.359375 2.265625 0.390625 C 2.335938 0.429688 2.425781 0.453125 2.53125 0.453125 L 2.875 0.453125 L 2.875 0.828125 Z "/>
</g>
<g id="glyph-1-2">
<path d="M 0.375 0.84375 C 0.613281 0.757812 0.796875 0.671875 0.921875 0.578125 C 1.046875 0.484375 1.109375 0.359375 1.109375 0.203125 C 1.109375 0.117188 1.078125 0.0546875 1.015625 0.015625 C 0.953125 -0.0234375 0.878906 -0.0664062 0.796875 -0.109375 C 0.722656 -0.160156 0.65625 -0.226562 0.59375 -0.3125 C 0.53125 -0.394531 0.5 -0.519531 0.5 -0.6875 C 0.5 -0.875 0.554688 -1.015625 0.671875 -1.109375 C 0.785156 -1.210938 0.925781 -1.265625 1.09375 -1.265625 C 1.332031 -1.265625 1.519531 -1.179688 1.65625 -1.015625 C 1.789062 -0.859375 1.859375 -0.632812 1.859375 -0.34375 C 1.859375 0.0078125 1.742188 0.332031 1.515625 0.625 C 1.296875 0.914062 0.914062 1.132812 0.375 1.28125 Z "/>
</g>
<g id="glyph-1-3">
</g>
<g id="glyph-1-4">
<path d="M 0.3125 0.828125 L 0.3125 0.21875 L 1.21875 -0.546875 C 1.507812 -0.785156 1.703125 -1.007812 1.796875 -1.21875 C 1.898438 -1.4375 1.953125 -1.65625 1.953125 -1.875 C 1.953125 -2.0625 1.921875 -2.203125 1.859375 -2.296875 C 1.804688 -2.398438 1.707031 -2.453125 1.5625 -2.453125 C 1.425781 -2.453125 1.328125 -2.410156 1.265625 -2.328125 C 1.210938 -2.242188 1.175781 -2.132812 1.15625 -2 C 1.132812 -1.875 1.125 -1.75 1.125 -1.625 C 0.9375 -1.625 0.765625 -1.660156 0.609375 -1.734375 C 0.453125 -1.816406 0.375 -1.945312 0.375 -2.125 C 0.375 -2.320312 0.472656 -2.488281 0.671875 -2.625 C 0.878906 -2.757812 1.175781 -2.828125 1.5625 -2.828125 C 2.007812 -2.828125 2.332031 -2.742188 2.53125 -2.578125 C 2.738281 -2.421875 2.84375 -2.207031 2.84375 -1.9375 C 2.84375 -1.769531 2.804688 -1.613281 2.734375 -1.46875 C 2.671875 -1.332031 2.550781 -1.175781 2.375 -1 C 2.207031 -0.820312 1.960938 -0.609375 1.640625 -0.359375 L 0.953125 0.171875 L 2.296875 0.171875 C 2.410156 0.171875 2.488281 0.144531 2.53125 0.09375 C 2.582031 0.0390625 2.617188 -0.0195312 2.640625 -0.09375 L 2.6875 -0.328125 L 2.984375 -0.328125 L 2.953125 0.828125 Z "/>
</g>
<g id="glyph-1-5">
<path d="M 2.328125 0.078125 C 1.828125 0.078125 1.425781 -0.046875 1.125 -0.296875 C 0.820312 -0.554688 0.601562 -0.914062 0.46875 -1.375 C 0.34375 -1.832031 0.28125 -2.367188 0.28125 -2.984375 C 0.28125 -3.609375 0.34375 -4.144531 0.46875 -4.59375 C 0.601562 -5.050781 0.820312 -5.40625 1.125 -5.65625 C 1.425781 -5.90625 1.832031 -6.03125 2.34375 -6.03125 C 2.820312 -6.03125 3.207031 -5.90625 3.5 -5.65625 C 3.800781 -5.40625 4.019531 -5.050781 4.15625 -4.59375 C 4.300781 -4.132812 4.375 -3.597656 4.375 -2.984375 C 4.375 -2.367188 4.300781 -1.832031 4.15625 -1.375 C 4.019531 -0.914062 3.800781 -0.554688 3.5 -0.296875 C 3.207031 -0.046875 2.816406 0.078125 2.328125 0.078125 Z M 2.328125 -0.453125 C 2.640625 -0.453125 2.84375 -0.675781 2.9375 -1.125 C 3.03125 -1.570312 3.078125 -2.191406 3.078125 -2.984375 C 3.078125 -3.773438 3.03125 -4.390625 2.9375 -4.828125 C 2.84375 -5.265625 2.644531 -5.484375 2.34375 -5.484375 C 2.03125 -5.484375 1.820312 -5.265625 1.71875 -4.828125 C 1.625 -4.390625 1.578125 -3.773438 1.578125 -2.984375 C 1.578125 -2.191406 1.625 -1.570312 1.71875 -1.125 C 1.820312 -0.675781 2.023438 -0.453125 2.328125 -0.453125 Z "/>
</g>
</g>
</defs>
<g fill="rgb(37.254902%, 83.921569%, 54.901961%)" fill-opacity="1">
<use xlink:href="#glyph-0-0" x="30" y="28.908203"/>
</g>
<g fill="rgb(37.254902%, 83.921569%, 54.901961%)" fill-opacity="1">
<use xlink:href="#glyph-1-0" x="34" y="28.908203"/>
<use xlink:href="#glyph-1-1" x="40" y="28.908203"/>
<use xlink:href="#glyph-1-2" x="43" y="28.908203"/>
<use xlink:href="#glyph-1-3" x="45" y="28.908203"/>
<use xlink:href="#glyph-1-0" x="47" y="28.908203"/>
<use xlink:href="#glyph-1-4" x="53" y="28.908203"/>
</g>
<g fill="rgb(37.254902%, 83.921569%, 54.901961%)" fill-opacity="1">
<use xlink:href="#glyph-0-1" x="56" y="28.908203"/>
<use xlink:href="#glyph-0-2" x="60" y="28.908203"/>
<use xlink:href="#glyph-0-3" x="63" y="28.908203"/>
</g>
<g fill="rgb(37.254902%, 83.921569%, 54.901961%)" fill-opacity="1">
<use xlink:href="#glyph-1-3" x="70" y="28.908203"/>
<use xlink:href="#glyph-1-5" x="72" y="28.908203"/>
</g>
</svg>
