<?xml version="1.0" encoding="UTF-8"?>
<svg xmlns="http://www.w3.org/2000/svg" xmlns:xlink="http://www.w3.org/1999/xlink" width="1080" height="1920" viewBox="0 0 1080 1920">
<defs>
<g>
<g id="glyph-0-0">
<path d="M 1.703125 0.0625 C 1.335938 0.0625 1.046875 -0.03125 0.828125 -0.21875 C 0.609375 -0.40625 0.445312 -0.664062 0.34375 -1 C 0.25 -1.34375 0.203125 -1.738281 0.203125 -2.1875 C 0.203125 -2.644531 0.25 -3.039062 0.34375 -3.375 C 0.445312 -3.707031 0.609375 -3.960938 0.828125 -4.140625 C 1.046875 -4.328125 1.34375 -4.421875 1.71875 -4.421875 C 2.070312 -4.421875 2.359375 -4.328125 2.578125 -4.140625 C 2.796875 -3.960938 2.953125 -3.703125 3.046875 -3.359375 C 3.148438 -3.023438 3.203125 -2.632812 3.203125 -2.1875 C 3.203125 -1.738281 3.148438 -1.34375 3.046875 -1 C 2.953125 -0.664062 2.789062 -0.40625 2.5625 -0.21875 C 2.34375 -0.03125 2.054688 0.0625 1.703125 0.0625 Z M 1.703125 -0.34375 C 1.929688 -0.34375 2.082031 -0.503906 2.15625 -0.828125 C 2.226562 -1.148438 2.265625 -1.601562 2.265625 -2.1875 C 2.265625 -2.769531 2.226562 -3.222656 2.15625 -3.546875 C 2.082031 -3.867188 1.9375 -4.03125 1.71875 -4.03125 C 1.488281 -4.03125 1.335938 -3.867188 1.265625 -3.546875 C 1.191406 -3.222656 1.15625 -2.769531 1.15625 -2.1875 C 1.15625 -1.601562 1.191406 -1.148438 1.265625 -0.828125 C 1.335938 -0.503906 1.484375 -0.34375 1.703125 -0.34375 Z "/>
</g>
<g id="glyph-0-1">
<path d="M 0.890625 0.046875 C 0.753906 0.046875 0.632812 0.0078125 0.53125 -0.0625 C 0.4375 -0.132812 0.390625 -0.257812 0.390625 -0.4375 C 0.390625 -0.625 0.4375 -0.75 0.53125 -0.8125 C 0.632812 -0.882812 0.753906 -0.921875 0.890625 -0.921875 C 1.023438 -0.921875 1.144531 -0.882812 1.25 -0.8125 C 1.351562 -0.75 1.40625 -0.625 1.40625 -0.4375 C 1.40625 -0.257812 1.351562 -0.132812 1.25 -0.0625 C 1.144531 0.0078125 1.023438 0.046875 0.890625 0.046875 Z "/>
</g>
<g id="glyph-0-2">
<path d="M 1.5 0.0625 C 1.1875 0.0625 0.9375 0.0234375 0.75 -0.046875 C 0.570312 -0.117188 0.441406 -0.207031 0.359375 -0.3125 C 0.285156 -0.425781 0.25 -0.546875 0.25 -0.671875 C 0.25 -0.816406 0.289062 -0.921875 0.375 -0.984375 C 0.46875 -1.054688 0.585938 -1.09375 0.734375 -1.09375 C 0.734375 -0.976562 0.753906 -0.863281 0.796875 -0.75 C 0.835938 -0.644531 0.90625 -0.550781 1 -0.46875 C 1.101562 -0.394531 1.238281 -0.359375 1.40625 -0.359375 C 1.539062 -0.359375 1.664062 -0.390625 1.78125 -0.453125 C 1.894531 -0.515625 1.984375 -0.613281 2.046875 -0.75 C 2.117188 -0.894531 2.15625 -1.09375 2.15625 -1.34375 C 2.15625 -1.644531 2.082031 -1.867188 1.9375 -2.015625 C 1.789062 -2.171875 1.585938 -2.25 1.328125 -2.25 C 1.171875 -2.25 1.039062 -2.238281 0.9375 -2.21875 C 0.832031 -2.195312 0.734375 -2.171875 0.640625 -2.140625 L 0.359375 -2.25 L 0.5625 -4.359375 L 2.875 -4.359375 L 2.90625 -3.25 L 2.546875 -3.25 L 2.5 -3.453125 C 2.488281 -3.523438 2.460938 -3.582031 2.421875 -3.625 C 2.390625 -3.664062 2.320312 -3.6875 2.21875 -3.6875 L 0.953125 -3.6875 L 0.859375 -2.5625 C 0.921875 -2.582031 1.015625 -2.601562 1.140625 -2.625 C 1.273438 -2.644531 1.40625 -2.65625 1.53125 -2.65625 C 2 -2.65625 2.375 -2.546875 2.65625 -2.328125 C 2.945312 -2.109375 3.09375 -1.78125 3.09375 -1.34375 C 3.09375 -1.082031 3.039062 -0.859375 2.9375 -0.671875 C 2.84375 -0.492188 2.71875 -0.347656 2.5625 -0.234375 C 2.40625 -0.128906 2.234375 -0.0507812 2.046875 0 C 1.859375 0.0390625 1.675781 0.0625 1.5 0.0625 Z "/>
</g>
</g>
</defs>
<g fill="rgb(35.686275%, 65.882353%, 94.901961%)" fill-opacity="1">
<use xlink:href="#glyph-0-0" x="30" y="26.532227"/>
<use xlink:href="#glyph-0-1" x="33" y="26.532227"/>
<use xlink:href="#glyph-0-2" x="35" y="26.532227"/>
</g>
</svg>
