<?xml version="1.0" encoding="UTF-8"?>
<svg xmlns="http://www.w3.org/2000/svg" xmlns:xlink="http://www.w3.org/1999/xlink" width="1080" height="1920" viewBox="0 0 1080 1920">
<defs>
<g>
<g id="glyph-0-0">
<path d="M 0.59375 0 L 0.59375 -0.328125 L 1.09375 -0.328125 C 1.195312 -0.328125 1.273438 -0.351562 1.328125 -0.40625 C 1.378906 -0.46875 1.40625 -0.570312 1.40625 -0.71875 L 1.40625 -3.78125 C 1.25 -3.59375 1.109375 -3.4375 0.984375 -3.3125 C 0.859375 -3.195312 0.734375 -3.140625 0.609375 -3.140625 C 0.515625 -3.140625 0.429688 -3.179688 0.359375 -3.265625 C 0.285156 -3.347656 0.25 -3.457031 0.25 -3.59375 C 0.375 -3.625 0.507812 -3.671875 0.65625 -3.734375 C 0.8125 -3.804688 0.992188 -3.914062 1.203125 -4.0625 L 1.625 -4.390625 L 2.3125 -4.390625 L 2.3125 -0.71875 C 2.3125 -0.59375 2.332031 -0.492188 2.375 -0.421875 C 2.414062 -0.359375 2.5 -0.328125 2.625 -0.328125 L 3.109375 -0.328125 L 3.109375 0 Z "/>
</g>
<g id="glyph-0-1">
<path d="M 1.875 0.0625 C 1.351562 0.0625 0.957031 -0.0820312 0.6875 -0.375 C 0.414062 -0.675781 0.28125 -1.09375 0.28125 -1.625 C 0.28125 -2.195312 0.410156 -2.628906 0.671875 -2.921875 C 0.941406 -3.210938 1.316406 -3.359375 1.796875 -3.359375 C 2.242188 -3.359375 2.59375 -3.234375 2.84375 -2.984375 C 3.101562 -2.734375 3.234375 -2.363281 3.234375 -1.875 L 3.234375 -1.5625 L 1.234375 -1.5625 C 1.242188 -1.15625 1.316406 -0.859375 1.453125 -0.671875 C 1.597656 -0.484375 1.796875 -0.390625 2.046875 -0.390625 C 2.253906 -0.390625 2.429688 -0.4375 2.578125 -0.53125 C 2.722656 -0.632812 2.832031 -0.753906 2.90625 -0.890625 C 3.019531 -0.828125 3.078125 -0.726562 3.078125 -0.59375 C 3.078125 -0.414062 2.976562 -0.257812 2.78125 -0.125 C 2.582031 0 2.28125 0.0625 1.875 0.0625 Z M 2.296875 -1.96875 C 2.296875 -2.28125 2.257812 -2.519531 2.1875 -2.6875 C 2.113281 -2.863281 1.988281 -2.953125 1.8125 -2.953125 C 1.644531 -2.953125 1.507812 -2.867188 1.40625 -2.703125 C 1.300781 -2.535156 1.242188 -2.289062 1.234375 -1.96875 Z "/>
</g>
<g id="glyph-0-2">
<path d="M 0.15625 -1.34375 L 0.15625 -1.984375 L 1.734375 -1.984375 L 1.734375 -1.34375 Z "/>
</g>
<g id="glyph-0-3">
<path d="M 1.484375 0.0625 C 1.179688 0.0625 0.929688 0.03125 0.734375 -0.03125 C 0.546875 -0.101562 0.40625 -0.195312 0.3125 -0.3125 C 0.21875 -0.425781 0.171875 -0.546875 0.171875 -0.671875 C 0.171875 -0.828125 0.222656 -0.945312 0.328125 -1.03125 C 0.429688 -1.113281 0.550781 -1.15625 0.6875 -1.15625 C 0.6875 -0.882812 0.753906 -0.679688 0.890625 -0.546875 C 1.035156 -0.421875 1.21875 -0.359375 1.4375 -0.359375 C 1.570312 -0.359375 1.695312 -0.382812 1.8125 -0.4375 C 1.925781 -0.5 2.015625 -0.59375 2.078125 -0.71875 C 2.148438 -0.851562 2.1875 -1.035156 2.1875 -1.265625 C 2.1875 -1.492188 2.101562 -1.679688 1.9375 -1.828125 C 1.78125 -1.984375 1.550781 -2.0625 1.25 -2.0625 L 0.875 -2.0625 L 0.875 -2.4375 L 1.265625 -2.4375 C 1.535156 -2.4375 1.734375 -2.519531 1.859375 -2.6875 C 1.984375 -2.851562 2.046875 -3.070312 2.046875 -3.34375 C 2.046875 -3.5625 2.003906 -3.734375 1.921875 -3.859375 C 1.835938 -3.984375 1.710938 -4.046875 1.546875 -4.046875 C 1.390625 -4.046875 1.273438 -4 1.203125 -3.90625 C 1.128906 -3.820312 1.078125 -3.707031 1.046875 -3.5625 C 1.023438 -3.414062 1.015625 -3.265625 1.015625 -3.109375 C 0.765625 -3.109375 0.566406 -3.148438 0.421875 -3.234375 C 0.285156 -3.316406 0.21875 -3.453125 0.21875 -3.640625 C 0.21875 -3.859375 0.332031 -4.039062 0.5625 -4.1875 C 0.789062 -4.34375 1.125 -4.421875 1.5625 -4.421875 C 2 -4.421875 2.34375 -4.332031 2.59375 -4.15625 C 2.851562 -3.988281 2.984375 -3.742188 2.984375 -3.421875 C 2.984375 -3.148438 2.890625 -2.921875 2.703125 -2.734375 C 2.523438 -2.554688 2.304688 -2.421875 2.046875 -2.328125 C 2.210938 -2.296875 2.378906 -2.238281 2.546875 -2.15625 C 2.710938 -2.082031 2.851562 -1.972656 2.96875 -1.828125 C 3.082031 -1.679688 3.140625 -1.492188 3.140625 -1.265625 C 3.140625 -1.015625 3.09375 -0.800781 3 -0.625 C 2.90625 -0.457031 2.78125 -0.320312 2.625 -0.21875 C 2.46875 -0.125 2.289062 -0.0507812 2.09375 0 C 1.894531 0.0390625 1.691406 0.0625 1.484375 0.0625 Z "/>
</g>
</g>
</defs>
<g fill="rgb(35.686275%, 65.882353%, 94.901961%)" fill-opacity="1">
<use xlink:href="#glyph-0-0" x="30" y="26.532227"/>
<use xlink:href="#glyph-0-1" x="33" y="26.532227"/>
<use xlink:href="#glyph-0-2" x="36" y="26.532227"/>
<use xlink:href="#glyph-0-3" x="38" y="26.532227"/>
</g>
</svg>
