<?xml version="1.0" encoding="UTF-8"?>
<svg xmlns="http://www.w3.org/2000/svg" xmlns:xlink="http://www.w3.org/1999/xlink" width="1080" height="1920" viewBox="0 0 1080 1920">
<defs>
<g>
<g id="glyph-0-0">
<path d="M 3.125 0.078125 C 2.519531 0.078125 2.015625 -0.0390625 1.609375 -0.28125 C 1.210938 -0.519531 0.914062 -0.851562 0.71875 -1.28125 C 0.519531 -1.707031 0.421875 -2.207031 0.421875 -2.78125 C 0.421875 -3.34375 0.519531 -3.835938 0.71875 -4.265625 C 0.925781 -4.691406 1.226562 -5.023438 1.625 -5.265625 C 2.03125 -5.515625 2.523438 -5.640625 3.109375 -5.640625 C 3.703125 -5.640625 4.144531 -5.550781 4.4375 -5.375 C 4.738281 -5.195312 4.890625 -4.984375 4.890625 -4.734375 C 4.890625 -4.535156 4.804688 -4.367188 4.640625 -4.234375 C 4.472656 -4.109375 4.226562 -4.046875 3.90625 -4.046875 C 3.90625 -4.222656 3.878906 -4.394531 3.828125 -4.5625 C 3.785156 -4.726562 3.703125 -4.863281 3.578125 -4.96875 C 3.453125 -5.082031 3.28125 -5.140625 3.0625 -5.140625 C 2.5625 -5.140625 2.210938 -4.929688 2.015625 -4.515625 C 1.828125 -4.109375 1.734375 -3.53125 1.734375 -2.78125 C 1.734375 -2.03125 1.847656 -1.46875 2.078125 -1.09375 C 2.316406 -0.726562 2.726562 -0.546875 3.3125 -0.546875 C 3.5625 -0.546875 3.773438 -0.582031 3.953125 -0.65625 C 4.140625 -0.726562 4.296875 -0.820312 4.421875 -0.9375 C 4.546875 -1.050781 4.65625 -1.164062 4.75 -1.28125 C 4.832031 -1.207031 4.875 -1.097656 4.875 -0.953125 C 4.875 -0.804688 4.816406 -0.648438 4.703125 -0.484375 C 4.597656 -0.328125 4.421875 -0.191406 4.171875 -0.078125 C 3.921875 0.0234375 3.570312 0.078125 3.125 0.078125 Z "/>
</g>
<g id="glyph-0-1">
<path d="M 0.03125 0 L 0.03125 -0.40625 L 0.125 -0.40625 C 0.257812 -0.40625 0.375 -0.441406 0.46875 -0.515625 C 0.570312 -0.585938 0.664062 -0.742188 0.75 -0.984375 L 2.4375 -5.5625 L 3.5 -5.5625 L 5.125 -0.96875 C 5.207031 -0.75 5.296875 -0.597656 5.390625 -0.515625 C 5.484375 -0.441406 5.59375 -0.40625 5.71875 -0.40625 L 5.859375 -0.40625 L 5.859375 0 L 3.296875 0 L 3.296875 -0.40625 L 3.59375 -0.40625 C 3.675781 -0.40625 3.75 -0.425781 3.8125 -0.46875 C 3.882812 -0.519531 3.921875 -0.601562 3.921875 -0.71875 C 3.921875 -0.78125 3.914062 -0.835938 3.90625 -0.890625 C 3.894531 -0.953125 3.878906 -1.003906 3.859375 -1.046875 L 3.59375 -1.828125 L 1.703125 -1.828125 L 1.46875 -1.15625 C 1.445312 -1.09375 1.425781 -1.019531 1.40625 -0.9375 C 1.382812 -0.851562 1.375 -0.78125 1.375 -0.71875 C 1.375 -0.613281 1.410156 -0.535156 1.484375 -0.484375 C 1.554688 -0.429688 1.640625 -0.40625 1.734375 -0.40625 L 2.046875 -0.40625 L 2.046875 0 Z M 1.859375 -2.296875 L 3.4375 -2.296875 L 3.015625 -3.578125 C 2.960938 -3.753906 2.90625 -3.953125 2.84375 -4.171875 C 2.78125 -4.390625 2.726562 -4.585938 2.6875 -4.765625 C 2.632812 -4.597656 2.570312 -4.410156 2.5 -4.203125 C 2.4375 -3.992188 2.375 -3.800781 2.3125 -3.625 Z "/>
</g>
<g id="glyph-0-2">
<path d="M 2.046875 0.078125 C 1.585938 0.078125 1.222656 0.0234375 0.953125 -0.078125 C 0.691406 -0.191406 0.503906 -0.332031 0.390625 -0.5 C 0.285156 -0.675781 0.234375 -0.847656 0.234375 -1.015625 C 0.234375 -1.191406 0.273438 -1.332031 0.359375 -1.4375 C 0.441406 -1.539062 0.550781 -1.613281 0.6875 -1.65625 C 0.820312 -1.707031 0.960938 -1.734375 1.109375 -1.734375 C 1.109375 -1.296875 1.207031 -0.960938 1.40625 -0.734375 C 1.613281 -0.503906 1.867188 -0.390625 2.171875 -0.390625 C 2.484375 -0.390625 2.722656 -0.46875 2.890625 -0.625 C 3.054688 -0.789062 3.140625 -0.992188 3.140625 -1.234375 C 3.140625 -1.492188 3.03125 -1.703125 2.8125 -1.859375 C 2.601562 -2.023438 2.28125 -2.195312 1.84375 -2.375 C 1.476562 -2.519531 1.1875 -2.675781 0.96875 -2.84375 C 0.757812 -3.007812 0.609375 -3.191406 0.515625 -3.390625 C 0.429688 -3.585938 0.390625 -3.8125 0.390625 -4.0625 C 0.390625 -4.382812 0.472656 -4.660156 0.640625 -4.890625 C 0.804688 -5.128906 1.03125 -5.3125 1.3125 -5.4375 C 1.601562 -5.570312 1.929688 -5.640625 2.296875 -5.640625 C 2.867188 -5.640625 3.285156 -5.550781 3.546875 -5.375 C 3.816406 -5.195312 3.953125 -4.984375 3.953125 -4.734375 C 3.953125 -4.546875 3.875 -4.390625 3.71875 -4.265625 C 3.5625 -4.140625 3.320312 -4.078125 3 -4.078125 C 3 -4.222656 2.96875 -4.378906 2.90625 -4.546875 C 2.851562 -4.710938 2.765625 -4.851562 2.640625 -4.96875 C 2.523438 -5.09375 2.367188 -5.15625 2.171875 -5.15625 C 1.960938 -5.15625 1.78125 -5.09375 1.625 -4.96875 C 1.476562 -4.851562 1.40625 -4.675781 1.40625 -4.4375 C 1.40625 -4.289062 1.4375 -4.15625 1.5 -4.03125 C 1.570312 -3.914062 1.695312 -3.796875 1.875 -3.671875 C 2.0625 -3.546875 2.332031 -3.414062 2.6875 -3.28125 C 3.21875 -3.0625 3.597656 -2.828125 3.828125 -2.578125 C 4.054688 -2.328125 4.171875 -2.007812 4.171875 -1.625 C 4.171875 -1.289062 4.082031 -0.992188 3.90625 -0.734375 C 3.738281 -0.484375 3.492188 -0.285156 3.171875 -0.140625 C 2.859375 0.00390625 2.484375 0.078125 2.046875 0.078125 Z "/>
</g>
<g id="glyph-0-3">
<path d="M 0.21875 0 L 0.21875 -0.40625 L 0.546875 -0.40625 C 0.660156 -0.40625 0.753906 -0.429688 0.828125 -0.484375 C 0.898438 -0.546875 0.9375 -0.691406 0.9375 -0.921875 L 0.9375 -4.671875 C 0.9375 -4.878906 0.894531 -5.007812 0.8125 -5.0625 C 0.738281 -5.113281 0.648438 -5.140625 0.546875 -5.140625 L 0.21875 -5.140625 L 0.21875 -5.5625 L 2.78125 -5.5625 C 3.644531 -5.5625 4.320312 -5.332031 4.8125 -4.875 C 5.300781 -4.425781 5.546875 -3.757812 5.546875 -2.875 C 5.546875 -2.3125 5.441406 -1.8125 5.234375 -1.375 C 5.023438 -0.945312 4.71875 -0.609375 4.3125 -0.359375 C 3.90625 -0.117188 3.394531 0 2.78125 0 Z M 2.609375 -0.484375 C 3.140625 -0.484375 3.539062 -0.695312 3.8125 -1.125 C 4.082031 -1.550781 4.21875 -2.132812 4.21875 -2.875 C 4.21875 -3.613281 4.082031 -4.164062 3.8125 -4.53125 C 3.539062 -4.894531 3.140625 -5.078125 2.609375 -5.078125 L 2.171875 -5.078125 L 2.171875 -0.484375 Z "/>
</g>
<g id="glyph-0-4">
<path d="M 0.03125 0 L 0.03125 -0.40625 L 0.125 -0.40625 C 0.257812 -0.40625 0.375 -0.441406 0.46875 -0.515625 C 0.570312 -0.585938 0.664062 -0.742188 0.75 -0.984375 L 2.4375 -5.5625 L 3.5 -5.5625 L 5.125 -0.96875 C 5.207031 -0.75 5.296875 -0.597656 5.390625 -0.515625 C 5.484375 -0.441406 5.59375 -0.40625 5.71875 -0.40625 L 5.859375 -0.40625 L 5.859375 0 L 3.296875 0 L 3.296875 -0.40625 L 3.59375 -0.40625 C 3.675781 -0.40625 3.75 -0.425781 3.8125 -0.46875 C 3.882812 -0.519531 3.921875 -0.601562 3.921875 -0.71875 C 3.921875 -0.78125 3.914062 -0.835938 3.90625 -0.890625 C 3.894531 -0.953125 3.878906 -1.003906 3.859375 -1.046875 L 3.59375 -1.828125 L 1.703125 -1.828125 L 1.46875 -1.15625 C 1.445312 -1.09375 1.425781 -1.019531 1.40625 -0.9375 C 1.382812 -0.851562 1.375 -0.78125 1.375 -0.71875 C 1.375 -0.613281 1.410156 -0.535156 1.484375 -0.484375 C 1.554688 -0.429688 1.640625 -0.40625 1.734375 -0.40625 L 2.046875 -0.40625 L 2.046875 0 Z M 1.859375 -2.296875 L 3.4375 -2.296875 L 3.015625 -3.578125 C 2.960938 -3.753906 2.90625 -3.953125 2.84375 -4.171875 C 2.78125 -4.390625 2.726562 -4.585938 2.6875 -4.765625 C 2.632812 -4.597656 2.570312 -4.410156 2.5 -4.203125 C 2.4375 -3.992188 2.375 -3.800781 2.3125 -3.625 Z M 2.96875 -6 C 2.695312 -6 2.46875 -6.054688 2.28125 -6.171875 C 2.09375 -6.296875 1.953125 -6.453125 1.859375 -6.640625 C 1.765625 -6.835938 1.71875 -7.03125 1.71875 -7.21875 L 2.234375 -7.21875 C 2.273438 -7.03125 2.359375 -6.894531 2.484375 -6.8125 C 2.609375 -6.726562 2.769531 -6.6875 2.96875 -6.6875 C 3.15625 -6.6875 3.3125 -6.726562 3.4375 -6.8125 C 3.5625 -6.894531 3.644531 -7.03125 3.6875 -7.21875 L 4.203125 -7.21875 C 4.203125 -7.03125 4.15625 -6.835938 4.0625 -6.640625 C 3.96875 -6.453125 3.828125 -6.296875 3.640625 -6.171875 C 3.460938 -6.054688 3.238281 -6 2.96875 -6 Z "/>
</g>
<g id="glyph-0-5">
<path d="M 1.1875 -3 C 1.007812 -3 0.859375 -3.039062 0.734375 -3.125 C 0.609375 -3.21875 0.546875 -3.382812 0.546875 -3.625 C 0.546875 -3.851562 0.609375 -4.007812 0.734375 -4.09375 C 0.859375 -4.1875 1.007812 -4.234375 1.1875 -4.234375 C 1.351562 -4.234375 1.5 -4.1875 1.625 -4.09375 C 1.757812 -4.007812 1.828125 -3.851562 1.828125 -3.625 C 1.828125 -3.382812 1.757812 -3.21875 1.625 -3.125 C 1.5 -3.039062 1.351562 -3 1.1875 -3 Z M 1.1875 0.0625 C 1.007812 0.0625 0.859375 0.0195312 0.734375 -0.0625 C 0.609375 -0.15625 0.546875 -0.320312 0.546875 -0.5625 C 0.546875 -0.800781 0.609375 -0.960938 0.734375 -1.046875 C 0.859375 -1.140625 1.007812 -1.1875 1.1875 -1.1875 C 1.351562 -1.1875 1.5 -1.140625 1.625 -1.046875 C 1.757812 -0.960938 1.828125 -0.800781 1.828125 -0.5625 C 1.828125 -0.320312 1.757812 -0.15625 1.625 -0.0625 C 1.5 0.0195312 1.351562 0.0625 1.1875 0.0625 Z "/>
</g>
</g>
</defs>
<g fill="rgb(89.803922%, 69.803922%, 36.862745%)" fill-opacity="1">
<use xlink:href="#glyph-0-0" x="30" y="28.314453"/>
<use xlink:href="#glyph-0-1" x="35" y="28.314453"/>
<use xlink:href="#glyph-0-2" x="41" y="28.314453"/>
<use xlink:href="#glyph-0-0" x="46" y="28.314453"/>
<use xlink:href="#glyph-0-1" x="51" y="28.314453"/>
<use xlink:href="#glyph-0-3" x="57" y="28.314453"/>
<use xlink:href="#glyph-0-4" x="63" y="28.314453"/>
<use xlink:href="#glyph-0-5" x="69" y="28.314453"/>
</g>
</svg>
