<?xml version="1.0" encoding="UTF-8"?>
<svg xmlns="http://www.w3.org/2000/svg" xmlns:xlink="http://www.w3.org/1999/xlink" width="1080" height="1920" viewBox="0 0 1080 1920">
<defs>
<g>
<g id="glyph-0-0">
<path d="M 2.5625 0.0625 C 2.394531 0.0625 2.265625 0.0078125 2.171875 -0.09375 C 2.085938 -0.207031 2.046875 -0.34375 2.046875 -0.5 C 2.046875 -0.664062 2.082031 -0.914062 2.15625 -1.25 L 2.25 -1.6875 C 2.257812 -1.738281 2.273438 -1.800781 2.296875 -1.875 C 2.316406 -1.957031 2.332031 -2.039062 2.34375 -2.125 C 2.363281 -2.207031 2.375 -2.28125 2.375 -2.34375 C 2.375 -2.414062 2.359375 -2.488281 2.328125 -2.5625 C 2.296875 -2.632812 2.222656 -2.671875 2.109375 -2.671875 C 1.992188 -2.671875 1.878906 -2.628906 1.765625 -2.546875 C 1.648438 -2.460938 1.539062 -2.351562 1.4375 -2.21875 C 1.34375 -2.082031 1.257812 -1.941406 1.1875 -1.796875 C 1.125 -1.660156 1.082031 -1.535156 1.0625 -1.421875 L 0.765625 0 L 0.25 0 L 0.71875 -2.234375 C 0.726562 -2.285156 0.734375 -2.335938 0.734375 -2.390625 C 0.742188 -2.441406 0.75 -2.472656 0.75 -2.484375 C 0.75 -2.597656 0.707031 -2.671875 0.625 -2.703125 C 0.550781 -2.734375 0.460938 -2.75 0.359375 -2.75 L 0.3125 -2.75 L 0.359375 -2.984375 L 1.390625 -2.984375 L 1.234375 -2.28125 L 1.296875 -2.28125 C 1.453125 -2.519531 1.609375 -2.703125 1.765625 -2.828125 C 1.921875 -2.960938 2.101562 -3.03125 2.3125 -3.03125 C 2.53125 -3.03125 2.679688 -2.96875 2.765625 -2.84375 C 2.859375 -2.71875 2.90625 -2.578125 2.90625 -2.421875 C 2.90625 -2.328125 2.890625 -2.222656 2.859375 -2.109375 C 2.835938 -2.003906 2.816406 -1.898438 2.796875 -1.796875 L 2.65625 -1.140625 C 2.632812 -1.035156 2.617188 -0.929688 2.609375 -0.828125 C 2.597656 -0.734375 2.59375 -0.644531 2.59375 -0.5625 C 2.59375 -0.382812 2.65625 -0.296875 2.78125 -0.296875 C 2.882812 -0.296875 3.003906 -0.335938 3.140625 -0.421875 L 3.234375 -0.265625 C 3.148438 -0.191406 3.050781 -0.117188 2.9375 -0.046875 C 2.832031 0.0234375 2.707031 0.0625 2.5625 0.0625 Z "/>
</g>
<g id="glyph-0-1">
<path d="M 1.25 -3.53125 C 1.15625 -3.53125 1.078125 -3.554688 1.015625 -3.609375 C 0.960938 -3.660156 0.9375 -3.738281 0.9375 -3.84375 C 0.9375 -3.957031 0.96875 -4.050781 1.03125 -4.125 C 1.09375 -4.195312 1.171875 -4.234375 1.265625 -4.234375 C 1.359375 -4.234375 1.429688 -4.207031 1.484375 -4.15625 C 1.546875 -4.101562 1.578125 -4.023438 1.578125 -3.921875 C 1.578125 -3.773438 1.539062 -3.671875 1.46875 -3.609375 C 1.40625 -3.554688 1.332031 -3.53125 1.25 -3.53125 Z M 0.859375 0.0625 C 0.710938 0.0625 0.597656 0.0078125 0.515625 -0.09375 C 0.441406 -0.195312 0.40625 -0.320312 0.40625 -0.46875 C 0.40625 -0.550781 0.410156 -0.644531 0.421875 -0.75 C 0.429688 -0.851562 0.445312 -0.957031 0.46875 -1.0625 C 0.488281 -1.175781 0.503906 -1.269531 0.515625 -1.34375 L 0.734375 -2.375 C 0.742188 -2.425781 0.75 -2.472656 0.75 -2.515625 C 0.75 -2.617188 0.71875 -2.679688 0.65625 -2.703125 C 0.601562 -2.734375 0.523438 -2.75 0.421875 -2.75 L 0.34375 -2.75 L 0.390625 -2.984375 L 1.390625 -2.984375 L 1.015625 -1.203125 C 1.003906 -1.160156 0.988281 -1.097656 0.96875 -1.015625 C 0.957031 -0.941406 0.945312 -0.863281 0.9375 -0.78125 C 0.925781 -0.695312 0.921875 -0.628906 0.921875 -0.578125 C 0.921875 -0.390625 0.984375 -0.296875 1.109375 -0.296875 C 1.171875 -0.296875 1.234375 -0.304688 1.296875 -0.328125 C 1.367188 -0.359375 1.441406 -0.394531 1.515625 -0.4375 L 1.609375 -0.28125 C 1.523438 -0.207031 1.414062 -0.128906 1.28125 -0.046875 C 1.144531 0.0234375 1.003906 0.0625 0.859375 0.0625 Z "/>
</g>
<g id="glyph-0-2">
<path d="M 0.53125 -2.453125 C 0.507812 -2.566406 0.46875 -2.644531 0.40625 -2.6875 C 0.34375 -2.726562 0.257812 -2.75 0.15625 -2.75 L 0.09375 -2.75 L 0.140625 -2.984375 L 0.96875 -2.984375 L 1.234375 -1.328125 C 1.242188 -1.210938 1.257812 -1.085938 1.28125 -0.953125 C 1.300781 -0.828125 1.316406 -0.707031 1.328125 -0.59375 C 1.347656 -0.488281 1.359375 -0.40625 1.359375 -0.34375 L 1.375 -0.34375 C 1.507812 -0.476562 1.640625 -0.625 1.765625 -0.78125 C 1.890625 -0.945312 2 -1.109375 2.09375 -1.265625 C 2.1875 -1.429688 2.257812 -1.585938 2.3125 -1.734375 C 2.363281 -1.890625 2.390625 -2.023438 2.390625 -2.140625 C 2.390625 -2.273438 2.359375 -2.378906 2.296875 -2.453125 C 2.234375 -2.523438 2.148438 -2.5625 2.046875 -2.5625 C 2.046875 -2.71875 2.085938 -2.832031 2.171875 -2.90625 C 2.253906 -2.976562 2.34375 -3.015625 2.4375 -3.015625 C 2.550781 -3.015625 2.640625 -2.972656 2.703125 -2.890625 C 2.773438 -2.804688 2.8125 -2.671875 2.8125 -2.484375 C 2.8125 -2.265625 2.765625 -2.035156 2.671875 -1.796875 C 2.578125 -1.566406 2.457031 -1.335938 2.3125 -1.109375 C 2.164062 -0.878906 2.007812 -0.664062 1.84375 -0.46875 C 1.6875 -0.28125 1.546875 -0.125 1.421875 0 L 0.921875 0.046875 Z "/>
</g>
<g id="glyph-0-3">
<path d="M 1.328125 0.0625 C 1.128906 0.0625 0.945312 0.0195312 0.78125 -0.0625 C 0.613281 -0.15625 0.476562 -0.285156 0.375 -0.453125 C 0.28125 -0.617188 0.234375 -0.832031 0.234375 -1.09375 C 0.234375 -1.300781 0.269531 -1.515625 0.34375 -1.734375 C 0.414062 -1.960938 0.519531 -2.175781 0.65625 -2.375 C 0.800781 -2.570312 0.972656 -2.726562 1.171875 -2.84375 C 1.378906 -2.96875 1.617188 -3.03125 1.890625 -3.03125 C 2.128906 -3.03125 2.3125 -2.972656 2.4375 -2.859375 C 2.570312 -2.753906 2.640625 -2.597656 2.640625 -2.390625 C 2.640625 -2.203125 2.566406 -2.019531 2.421875 -1.84375 C 2.285156 -1.675781 2.09375 -1.539062 1.84375 -1.4375 C 1.601562 -1.332031 1.332031 -1.28125 1.03125 -1.28125 L 0.828125 -1.28125 C 0.828125 -1.238281 0.820312 -1.195312 0.8125 -1.15625 C 0.8125 -1.125 0.8125 -1.085938 0.8125 -1.046875 C 0.8125 -0.816406 0.863281 -0.632812 0.96875 -0.5 C 1.070312 -0.363281 1.222656 -0.296875 1.421875 -0.296875 C 1.609375 -0.296875 1.769531 -0.335938 1.90625 -0.421875 C 2.039062 -0.503906 2.148438 -0.597656 2.234375 -0.703125 C 2.265625 -0.671875 2.28125 -0.625 2.28125 -0.5625 C 2.28125 -0.476562 2.242188 -0.390625 2.171875 -0.296875 C 2.109375 -0.203125 2.003906 -0.117188 1.859375 -0.046875 C 1.722656 0.0234375 1.546875 0.0625 1.328125 0.0625 Z M 0.9375 -1.546875 C 1.15625 -1.546875 1.347656 -1.578125 1.515625 -1.640625 C 1.679688 -1.710938 1.8125 -1.8125 1.90625 -1.9375 C 2.007812 -2.070312 2.0625 -2.222656 2.0625 -2.390625 C 2.0625 -2.640625 1.953125 -2.765625 1.734375 -2.765625 C 1.628906 -2.765625 1.53125 -2.726562 1.4375 -2.65625 C 1.351562 -2.582031 1.269531 -2.484375 1.1875 -2.359375 C 1.113281 -2.242188 1.050781 -2.113281 1 -1.96875 C 0.945312 -1.820312 0.90625 -1.679688 0.875 -1.546875 Z "/>
</g>
<g id="glyph-0-4">
<path d="M 0.875 0.0625 C 0.71875 0.0625 0.597656 0.0078125 0.515625 -0.09375 C 0.441406 -0.195312 0.40625 -0.320312 0.40625 -0.46875 C 0.40625 -0.550781 0.410156 -0.644531 0.421875 -0.75 C 0.441406 -0.851562 0.457031 -0.957031 0.46875 -1.0625 C 0.488281 -1.175781 0.507812 -1.269531 0.53125 -1.34375 L 0.984375 -3.484375 C 0.992188 -3.535156 1 -3.582031 1 -3.625 C 1.007812 -3.675781 1.015625 -3.710938 1.015625 -3.734375 C 1.015625 -3.847656 0.976562 -3.921875 0.90625 -3.953125 C 0.832031 -3.984375 0.738281 -4 0.625 -4 L 0.5625 -4 L 0.609375 -4.234375 L 1.65625 -4.234375 L 1.015625 -1.203125 C 1.003906 -1.160156 0.992188 -1.097656 0.984375 -1.015625 C 0.972656 -0.941406 0.957031 -0.863281 0.9375 -0.78125 C 0.925781 -0.695312 0.921875 -0.628906 0.921875 -0.578125 C 0.921875 -0.390625 0.984375 -0.296875 1.109375 -0.296875 C 1.171875 -0.296875 1.234375 -0.304688 1.296875 -0.328125 C 1.367188 -0.359375 1.441406 -0.394531 1.515625 -0.4375 L 1.609375 -0.28125 C 1.523438 -0.207031 1.414062 -0.128906 1.28125 -0.046875 C 1.144531 0.0234375 1.007812 0.0625 0.875 0.0625 Z "/>
</g>
<g id="glyph-0-5">
</g>
<g id="glyph-0-6">
<path d="M -0.3125 0 L -0.265625 -0.234375 L -0.15625 -0.234375 C -0.0820312 -0.234375 -0.0234375 -0.242188 0.015625 -0.265625 C 0.0664062 -0.285156 0.117188 -0.328125 0.171875 -0.390625 C 0.222656 -0.453125 0.285156 -0.546875 0.359375 -0.671875 L 2.296875 -3.96875 L 2.71875 -3.96875 L 3.25 -0.53125 C 3.269531 -0.414062 3.300781 -0.335938 3.34375 -0.296875 C 3.394531 -0.253906 3.472656 -0.234375 3.578125 -0.234375 L 3.65625 -0.234375 L 3.609375 0 L 2.09375 0 L 2.140625 -0.234375 L 2.265625 -0.234375 C 2.390625 -0.234375 2.488281 -0.257812 2.5625 -0.3125 C 2.632812 -0.363281 2.671875 -0.429688 2.671875 -0.515625 C 2.671875 -0.546875 2.671875 -0.578125 2.671875 -0.609375 C 2.671875 -0.648438 2.664062 -0.679688 2.65625 -0.703125 L 2.5625 -1.328125 L 1.109375 -1.328125 L 0.765625 -0.75 C 0.703125 -0.613281 0.671875 -0.507812 0.671875 -0.4375 C 0.671875 -0.300781 0.773438 -0.234375 0.984375 -0.234375 L 1.109375 -0.234375 L 1.0625 0 Z M 1.875 -2.625 L 1.28125 -1.609375 L 2.53125 -1.609375 L 2.390625 -2.578125 C 2.367188 -2.742188 2.347656 -2.898438 2.328125 -3.046875 C 2.316406 -3.191406 2.304688 -3.328125 2.296875 -3.453125 C 2.242188 -3.328125 2.179688 -3.203125 2.109375 -3.078125 C 2.046875 -2.953125 1.96875 -2.800781 1.875 -2.625 Z "/>
</g>
</g>
</defs>
<g fill="rgb(46.666667%, 46.666667%, 46.666667%)" fill-opacity="1">
<use xlink:href="#glyph-0-0" x="30" y="25.939453"/>
<use xlink:href="#glyph-0-1" x="33" y="25.939453"/>
<use xlink:href="#glyph-0-2" x="35" y="25.939453"/>
<use xlink:href="#glyph-0-3" x="38" y="25.939453"/>
<use xlink:href="#glyph-0-4" x="41" y="25.939453"/>
<use xlink:href="#glyph-0-5" x="43" y="25.939453"/>
<use xlink:href="#glyph-0-6" x="44" y="25.939453"/>
</g>
</svg>
